<svg width="558" height="558" viewBox="0 0 558 558" fill="none" xmlns="http://www.w3.org/2000/svg">
<g clip-path="url(#clip0_1416_58)">
<path fill-rule="evenodd" clip-rule="evenodd" d="M408.5 295.5C408.5 341.052 378.667 369.266 346.5 385.294V402C346.5 408.627 341.127 414 334.5 414H224.5C217.873 414 212.5 408.627 212.5 402V386.635C178.016 369.337 150 338.571 150 295.5C149.999 228 208.256 170 279.501 170C350.746 170 408.5 225.5 408.5 295.5ZM300.5 366L280 332L259.5 366H300.5ZM241.083 263.115C244.748 259.451 250.689 259.451 254.353 263.115L271.225 279.987C274.89 283.651 274.89 289.593 271.225 293.257C267.561 296.922 261.619 296.922 257.955 293.257L241.083 276.385C237.419 272.721 237.419 266.78 241.083 263.115ZM306.007 262.635C309.671 258.971 315.613 258.971 319.277 262.635C322.942 266.3 322.942 272.241 319.277 275.905L302.405 292.777C298.741 296.442 292.8 296.442 289.135 292.777C285.471 289.113 285.471 283.171 289.135 279.507L306.007 262.635ZM379.5 320.5C379.5 342.315 361.815 360 340 360C318.185 360 300.5 342.315 300.5 320.5C300.5 298.685 318.185 281 340 281C361.815 281 379.5 298.685 379.5 320.5ZM222 360C243.815 360 261.5 342.315 261.5 320.5C261.5 298.685 243.815 281 222 281C200.185 281 182.5 298.685 182.5 320.5C182.5 342.315 200.185 360 222 360Z" fill="white"/>
<path fill-rule="evenodd" clip-rule="evenodd" d="M687.5 3.5C687.5 49.0521 657.667 77.2663 625.5 93.2936V110C625.5 116.627 620.127 122 613.5 122H503.5C496.873 122 491.5 116.627 491.5 110V94.635C457.016 77.3373 429.001 46.5707 429 3.5C428.999 -64 487.256 -122 558.501 -122C629.746 -122 687.5 -66.5 687.5 3.5ZM579.5 74L559 40L538.5 74H579.5ZM520.083 -28.885C523.748 -32.5495 529.689 -32.5495 533.353 -28.885L550.225 -12.0133C553.89 -8.34877 553.89 -2.40746 550.225 1.25702C546.561 4.9215 540.619 4.9215 536.955 1.25702L520.083 -15.6147C516.419 -19.2792 516.419 -25.2205 520.083 -28.885ZM585.007 -29.3649C588.671 -33.0294 594.613 -33.0294 598.277 -29.3649C601.942 -25.7004 601.942 -19.7591 598.277 -16.0946L581.405 0.77713C577.741 4.44161 571.8 4.44161 568.135 0.77713C564.471 -2.88735 564.471 -8.82866 568.135 -12.4931L585.007 -29.3649ZM658.5 28.5C658.5 50.3152 640.815 68 619 68C597.185 68 579.5 50.3152 579.5 28.5C579.5 6.68475 597.185 -11 619 -11C640.815 -11 658.5 6.68475 658.5 28.5ZM501 68C522.815 68 540.5 50.3152 540.5 28.5C540.5 6.68475 522.815 -11 501 -11C479.185 -11 461.5 6.68475 461.5 28.5C461.5 50.3152 479.185 68 501 68Z" fill="white"/>
<path fill-rule="evenodd" clip-rule="evenodd" d="M129.5 3.5C129.5 49.0521 99.6668 77.2663 67.5 93.2936V110C67.5 116.627 62.1274 122 55.5 122H-54.5C-61.1274 122 -66.5 116.627 -66.5 110V94.635C-100.984 77.3373 -128.999 46.5707 -129 3.5C-129.001 -64 -70.7438 -122 0.500977 -122C71.7457 -122 129.5 -66.5 129.5 3.5ZM21.5 74L1 40L-19.5 74H21.5ZM-37.9169 -28.885C-34.2524 -32.5495 -28.3111 -32.5495 -24.6466 -28.885L-7.77488 -12.0133C-4.1104 -8.34877 -4.11039 -2.40746 -7.77487 1.25702C-11.4394 4.9215 -17.3807 4.9215 -21.0451 1.25702L-37.9169 -15.6147C-41.5813 -19.2792 -41.5814 -25.2205 -37.9169 -28.885ZM27.007 -29.3649C30.6714 -33.0294 36.6127 -33.0294 40.2772 -29.3649C43.9417 -25.7004 43.9417 -19.7591 40.2772 -16.0946L23.4055 0.77713C19.741 4.44161 13.7997 4.44161 10.1352 0.77713C6.47073 -2.88735 6.47075 -8.82866 10.1352 -12.4931L27.007 -29.3649ZM100.5 28.5C100.5 50.3152 82.8152 68 61 68C39.1848 68 21.5 50.3152 21.5 28.5C21.5 6.68475 39.1848 -11 61 -11C82.8152 -11 100.5 6.68475 100.5 28.5ZM-57 68C-35.1848 68 -17.5 50.3152 -17.5 28.5C-17.5 6.68475 -35.1848 -11 -57 -11C-78.8152 -11 -96.5 6.68475 -96.5 28.5C-96.5 50.3152 -78.8152 68 -57 68Z" fill="white"/>
<path fill-rule="evenodd" clip-rule="evenodd" d="M129.5 561.5C129.5 607.052 99.6668 635.266 67.5 651.294V668C67.5 674.627 62.1274 680 55.5 680H-54.5C-61.1274 680 -66.5 674.627 -66.5 668V652.635C-100.984 635.337 -128.999 604.571 -129 561.5C-129.001 494 -70.7438 436 0.500977 436C71.7457 436 129.5 491.5 129.5 561.5ZM21.5 632L1 598L-19.5 632H21.5ZM-37.9169 529.115C-34.2524 525.451 -28.3111 525.451 -24.6466 529.115L-7.77488 545.987C-4.1104 549.651 -4.11039 555.593 -7.77487 559.257C-11.4394 562.922 -17.3807 562.922 -21.0451 559.257L-37.9169 542.385C-41.5813 538.721 -41.5814 532.78 -37.9169 529.115ZM27.007 528.635C30.6714 524.971 36.6127 524.971 40.2772 528.635C43.9417 532.3 43.9417 538.241 40.2772 541.905L23.4055 558.777C19.741 562.442 13.7997 562.442 10.1352 558.777C6.47073 555.113 6.47075 549.171 10.1352 545.507L27.007 528.635ZM100.5 586.5C100.5 608.315 82.8152 626 61 626C39.1848 626 21.5 608.315 21.5 586.5C21.5 564.685 39.1848 547 61 547C82.8152 547 100.5 564.685 100.5 586.5ZM-57 626C-35.1848 626 -17.5 608.315 -17.5 586.5C-17.5 564.685 -35.1848 547 -57 547C-78.8152 547 -96.5 564.685 -96.5 586.5C-96.5 608.315 -78.8152 626 -57 626Z" fill="white"/>
<path fill-rule="evenodd" clip-rule="evenodd" d="M687.5 561.5C687.5 607.052 657.667 635.266 625.5 651.294V668C625.5 674.627 620.127 680 613.5 680H503.5C496.873 680 491.5 674.627 491.5 668V652.635C457.016 635.337 429.001 604.571 429 561.5C428.999 494 487.256 436 558.501 436C629.746 436 687.5 491.5 687.5 561.5ZM579.5 632L559 598L538.5 632H579.5ZM520.083 529.115C523.748 525.451 529.689 525.451 533.353 529.115L550.225 545.987C553.89 549.651 553.89 555.593 550.225 559.257C546.561 562.922 540.619 562.922 536.955 559.257L520.083 542.385C516.419 538.721 516.419 532.78 520.083 529.115ZM585.007 528.635C588.671 524.971 594.613 524.971 598.277 528.635C601.942 532.3 601.942 538.241 598.277 541.905L581.405 558.777C577.741 562.442 571.8 562.442 568.135 558.777C564.471 555.113 564.471 549.171 568.135 545.507L585.007 528.635ZM658.5 586.5C658.5 608.315 640.815 626 619 626C597.185 626 579.5 608.315 579.5 586.5C579.5 564.685 597.185 547 619 547C640.815 547 658.5 564.685 658.5 586.5ZM501 626C522.815 626 540.5 608.315 540.5 586.5C540.5 564.685 522.815 547 501 547C479.185 547 461.5 564.685 461.5 586.5C461.5 608.315 479.185 626 501 626Z" fill="white"/>
</g>
<defs>
<clipPath id="clip0_1416_58">
<rect width="558" height="558" fill="white"/>
</clipPath>
</defs>
</svg>
