<svg width="61" height="87" viewBox="0 0 61 87" fill="none" xmlns="http://www.w3.org/2000/svg"><path d="M3.18986 44.2654C1.99802 43.0336 2.07865 41.0554 3.36679 39.9247L46 2.50219C46.9299 1.67964 48.3767 1.89412 49.0279 2.95107L57.7208 17.7377C58.1833 18.4885 58.0996 19.4536 57.5147 20.1135L39 41.0022L55.6825 63.8819C56.1739 64.5557 56.1955 65.4637 55.7369 66.1602L44.4082 83.3631C43.6927 84.4497 42.1467 84.5747 41.2659 83.6172L3.18986 44.2654Z" fill="#FFFFFD"/><path fill-rule="evenodd" clip-rule="evenodd" d="M50.7415 1.91956L59.4363 16.7094C60.3471 18.2079 60.1758 20.1264 59.0114 21.4401C59.0114 21.4401 59.0114 21.44 59.0114 21.4401L41.5643 41.1243L57.2985 62.7035C57.2986 62.7035 57.2985 62.7035 57.2985 62.7035C58.2812 64.0511 58.3245 65.8671 57.4072 67.2601L46.0786 84.4631C44.653 86.6279 41.5788 86.8842 39.814 84.9928L1.75256 45.6561C-0.233854 43.6031 -0.0994655 40.3061 2.04742 38.4216L44.6749 1.00415C44.6761 1.00306 44.6774 1.00197 44.6786 1.00088C46.5384 -0.640402 49.4291 -0.210601 50.7307 1.9019L50.7415 1.91956ZM41.2659 83.6171C42.1467 84.5746 43.6927 84.4496 44.4082 83.3631L55.7369 66.1601C56.1955 65.4637 56.1739 64.5557 55.6825 63.8818L39 41.0022L57.5147 20.1134C58.0996 19.4536 58.1833 18.4884 57.7208 17.7377L49.0279 2.95103C48.3767 1.89407 46.9299 1.67959 46 2.50215L3.3668 39.9247C2.07866 41.0554 1.99803 43.0336 3.18987 44.2654L41.2659 83.6171Z" fill="black"/></svg>